<svg width="26" height="26" viewBox="0 0 26 26" fill="none" xmlns="http://www.w3.org/2000/svg">
<path d="M16.3047 5.41659C17.3628 5.62303 18.3353 6.14053 19.0976 6.90285C19.8599 7.66517 20.3774 8.63762 20.5839 9.69575M16.3047 1.08325C18.5031 1.32747 20.5531 2.31194 22.1181 3.87501C23.6832 5.43808 24.6702 7.48685 24.9172 9.68492" stroke="#578656" stroke-width="2" stroke-linecap="round" stroke-linejoin="round"/>
<path d="M22.7955 19.1046V22.3546C22.7967 22.6563 22.7349 22.955 22.614 23.2314C22.4931 23.5078 22.3159 23.756 22.0935 23.96C21.8712 24.1639 21.6088 24.3192 21.3229 24.4159C21.0371 24.5125 20.7343 24.5484 20.4338 24.5213C17.1002 24.159 13.898 23.0199 11.0846 21.1954C8.46711 19.5322 6.24791 17.313 4.58463 14.6954C2.75377 11.8692 1.61439 8.65151 1.25879 5.30293C1.23172 5.00336 1.26733 4.70142 1.36334 4.41636C1.45935 4.1313 1.61366 3.86935 1.81646 3.64719C2.01925 3.42503 2.26608 3.24754 2.54123 3.126C2.81639 3.00446 3.11383 2.94155 3.41463 2.94127H6.66463C7.19038 2.93609 7.70007 3.12227 8.0987 3.46509C8.49734 3.80792 8.75771 4.284 8.8313 4.8046C8.96847 5.84467 9.22287 6.86589 9.58963 7.84877C9.73538 8.23652 9.76693 8.65793 9.68053 9.06305C9.59413 9.46818 9.3934 9.84005 9.10213 10.1346L7.72629 11.5104C9.26848 14.2226 11.5141 16.4683 14.2263 18.0104L15.6021 16.6346C15.8967 16.3433 16.2685 16.1426 16.6737 16.0562C17.0788 15.9698 17.5002 16.0013 17.888 16.1471C18.8708 16.5139 19.8921 16.7683 20.9321 16.9054C21.4584 16.9797 21.939 17.2447 22.2825 17.6502C22.6261 18.0557 22.8086 18.5733 22.7955 19.1046Z" fill="#578656"/>
</svg>
