<svg width="184" height="250" viewBox="0 0 184 250" fill="none" xmlns="http://www.w3.org/2000/svg">
<path d="M92.0061 250C67.7714 250 45.4754 245.073 29.2167 236.131C10.3811 225.757 0 210.53 0 193.227C0 178.049 7.8042 164.637 22.5659 154.449C23.1304 154.066 23.8912 154.202 24.2716 154.77C24.652 155.338 24.517 156.103 23.9525 156.486C9.89023 166.181 2.45415 178.889 2.45415 193.227C2.45415 209.579 12.3812 224.053 30.3947 233.958C46.2976 242.714 68.1763 247.53 92.0061 247.53C115.836 247.53 137.715 242.714 153.618 233.958C171.631 224.041 181.558 209.579 181.558 193.227C181.558 178.889 174.122 166.181 160.047 156.474C159.483 156.091 159.348 155.325 159.728 154.757C160.109 154.189 160.87 154.053 161.434 154.436C176.196 164.625 184 178.037 184 193.215C184 210.517 173.619 225.745 154.783 236.119C138.549 245.073 116.241 250 92.0061 250Z" fill="#E0B624"/>
<g opacity="0.8">
<path d="M92.0075 243.825C68.8035 243.825 47.5505 239.169 32.163 230.709C15.3766 221.472 6.13672 208.171 6.13672 193.227C6.13672 181.26 12.039 170.331 23.2053 161.624C23.7453 161.204 24.5183 161.303 24.9232 161.846C25.3282 162.39 25.2423 163.155 24.7024 163.575C14.1618 171.788 8.59087 182.051 8.59087 193.227C8.59087 207.22 17.3767 219.755 33.341 228.536C48.3727 236.798 69.2084 241.355 92.0075 241.355C114.819 241.355 135.655 236.798 150.674 228.536C166.638 219.767 175.424 207.22 175.424 193.227C175.424 182.051 169.853 171.788 159.313 163.575C158.773 163.155 158.674 162.377 159.092 161.846C159.509 161.303 160.282 161.204 160.81 161.624C171.976 170.331 177.878 181.26 177.878 193.227C177.878 208.171 168.638 221.484 151.852 230.709C136.477 239.169 115.224 243.825 92.0075 243.825Z" fill="#E0B624"/>
</g>
<g opacity="0.4">
<path d="M92.0049 237.65C45.8055 237.65 12.2695 218.965 12.2695 193.228C12.2695 184.15 16.5029 175.617 24.5035 168.528C25.0066 168.083 25.7796 168.12 26.2337 168.639C26.6754 169.145 26.6263 169.936 26.1232 170.38C18.6626 176.987 14.7237 184.879 14.7237 193.228C14.7237 217.532 47.2289 235.18 92.0049 235.18C136.781 235.18 169.286 217.532 169.286 193.228C169.286 184.879 165.347 176.975 157.887 170.368C157.371 169.911 157.322 169.133 157.776 168.626C158.23 168.108 159.003 168.071 159.506 168.515C167.507 175.604 171.74 184.15 171.74 193.228C171.74 218.965 138.204 237.65 92.0049 237.65Z" fill="#E0B624"/>
</g>
<g opacity="0.2">
<path d="M92.0063 231.475C50.0525 231.475 18.4062 215.037 18.4062 193.227C18.4062 186.731 21.1181 180.667 26.4681 175.196C26.9467 174.714 27.7198 174.702 28.1983 175.184C28.6769 175.665 28.6891 176.443 28.2106 176.925C23.3268 181.927 20.8604 187.41 20.8604 193.227C20.8604 213.629 51.4514 229.005 92.0063 229.005C132.561 229.005 163.152 213.629 163.152 193.227C163.152 187.41 160.673 181.927 155.802 176.925C155.323 176.443 155.336 175.653 155.814 175.184C156.293 174.702 157.078 174.714 157.544 175.196C162.894 180.667 165.606 186.743 165.606 193.227C165.606 215.037 133.96 231.475 92.0063 231.475Z" fill="#E0B624"/>
</g>
<g opacity="0.1">
<path d="M92.0076 225.3C54.8027 225.3 24.543 210.913 24.543 193.228C24.543 189.201 26.0523 185.286 29.0341 181.594C29.4635 181.063 30.2366 180.989 30.7642 181.409C31.2919 181.841 31.3655 182.619 30.9483 183.15C28.3346 186.386 26.9971 189.782 26.9971 193.228C26.9971 209.554 56.1647 222.83 92.0076 222.83C127.85 222.83 157.018 209.554 157.018 193.228C157.018 189.782 155.693 186.386 153.067 183.15C152.637 182.619 152.723 181.841 153.239 181.409C153.766 180.976 154.539 181.063 154.969 181.594C157.951 185.286 159.472 189.201 159.472 193.228C159.472 210.913 129.213 225.3 92.0076 225.3Z" fill="#E0B624"/>
</g>
<path d="M87.7993 32.6655H51.7969V32.9619H87.7993V32.6655Z" fill="#E0B624"/>
<path d="M69.9552 14.6963H69.6484V50.9311H69.9552V14.6963Z" fill="#E0B624"/>
<path d="M82.438 19.9199L56.9375 45.498L57.154 45.7167L82.6546 20.1386L82.438 19.9199Z" fill="#E0B624"/>
<path d="M57.1779 19.893L56.9609 20.1113L82.4182 45.7329L82.6352 45.5146L57.1779 19.893Z" fill="#E0B624"/>
<path d="M87.1774 28.0636L52.3477 37.2812L52.4225 37.5679L87.2523 28.3503L87.1774 28.0636Z" fill="#E0B624"/>
<path d="M65.2885 15.2746L64.9922 15.3545L74.3128 50.3656L74.6091 50.2857L65.2885 15.2746Z" fill="#E0B624"/>
<path d="M78.6686 17.0579L60.6602 48.4336L60.9258 48.588L78.9342 17.2123L78.6686 17.0579Z" fill="#E0B624"/>
<path d="M54.2762 23.6344L54.1289 23.8911L85.307 42.0085L85.4542 41.7518L54.2762 23.6344Z" fill="#E0B624"/>
<path d="M85.298 23.5966L54.1523 41.772L54.3001 42.0284L85.4457 23.853L85.298 23.5966Z" fill="#E0B624"/>
<path d="M60.9336 17.0439L60.668 17.1982L78.6692 48.5776L78.9348 48.4232L60.9336 17.0439Z" fill="#E0B624"/>
<path d="M74.3203 15.2731L64.9961 50.2842L65.2924 50.3641L74.6166 15.353L74.3203 15.2731Z" fill="#E0B624"/>
<path d="M52.375 28.2689L87.1503 37.6549L87.2362 37.3585L52.4486 27.9849L52.375 28.2689Z" fill="#E0B624"/>
<path d="M51.9336 35.0367L51.9704 35.3331L87.6783 30.603L87.6292 30.3066L51.9336 35.0367Z" fill="#E0B624"/>
<path d="M67.5927 14.8339L67.3008 14.8726L72.0007 50.8079L72.2927 50.7693L67.5927 14.8339Z" fill="#E0B624"/>
<path d="M80.6433 18.3637L58.707 47.0942L58.9405 47.2748L80.8768 18.5443L80.6433 18.3637Z" fill="#E0B624"/>
<path d="M55.6086 21.6584L55.4219 21.9033L83.9862 43.9594L84.1729 43.7145L55.6086 21.6584Z" fill="#E0B624"/>
<path d="M86.3687 25.74L53.1133 39.6216L53.2261 39.8954L86.4815 26.0138L86.3687 25.74Z" fill="#E0B624"/>
<path d="M62.7695 16.1416L76.5496 49.6223L76.8318 49.4988L63.0518 16.0181L62.7695 16.1416Z" fill="#E0B624"/>
<path d="M76.5254 16.0064L62.793 49.5132L63.0652 49.6262L76.7976 16.1194L76.5254 16.0064Z" fill="#E0B624"/>
<path d="M53.2221 25.7496L53.1094 26.0234L86.372 39.8905L86.4847 39.6166L53.2221 25.7496Z" fill="#E0B624"/>
<path d="M55.4258 43.7308L55.6098 43.9655L84.1762 21.9085L83.9921 21.6738L55.4258 43.7308Z" fill="#E0B624"/>
<path d="M58.9524 18.3503L58.7188 18.5308L80.637 47.2794L80.8707 47.099L58.9524 18.3503Z" fill="#E0B624"/>
<path d="M71.9875 14.823L67.3164 50.7656L67.6084 50.8041L72.2795 14.8614L71.9875 14.823Z" fill="#E0B624"/>
<path d="M51.9642 30.3121L51.9258 30.606L87.6307 35.3362L87.6692 35.0424L51.9642 30.3121Z" fill="#E0B624"/>
<path d="M174.417 95.2798H121.812V95.7244H174.417V95.2798Z" fill="#E0B624"/>
<path d="M148.344 69.0239H147.902V121.981H148.344V69.0239Z" fill="#E0B624"/>
<path d="M166.597 76.6419L129.328 114.024L129.64 114.339L166.909 76.9568L166.597 76.6419Z" fill="#E0B624"/>
<path d="M129.672 76.6178L129.359 76.9321L166.565 114.378L166.877 114.063L129.672 76.6178Z" fill="#E0B624"/>
<path d="M173.503 88.5571L122.617 102.024L122.73 102.454L173.615 88.987L173.503 88.5571Z" fill="#E0B624"/>
<path d="M141.509 69.8722L141.082 69.9873L154.699 121.138L155.126 121.023L141.509 69.8722Z" fill="#E0B624"/>
<path d="M161.085 72.4593L134.766 118.314L135.148 118.537L161.467 72.6817L161.085 72.4593Z" fill="#E0B624"/>
<path d="M125.444 82.0691L125.223 82.4541L170.789 108.932L171.01 108.547L125.444 82.0691Z" fill="#E0B624"/>
<path d="M170.773 82.0175L125.254 108.581L125.475 108.965L170.994 82.4022L170.773 82.0175Z" fill="#E0B624"/>
<path d="M135.144 72.4589L134.762 72.6812L161.07 118.542L161.453 118.319L135.144 72.4589Z" fill="#E0B624"/>
<path d="M154.716 69.8683L141.094 121.019L141.52 121.134L155.143 69.9834L154.716 69.8683Z" fill="#E0B624"/>
<path d="M122.648 88.8579L173.474 102.566L173.584 102.146L122.759 88.438L122.648 88.8579Z" fill="#E0B624"/>
<path d="M122.012 98.7378L122.061 99.17L174.224 92.2664L174.175 91.8218L122.012 98.7378Z" fill="#E0B624"/>
<path d="M144.903 69.2223L144.465 69.2803L151.331 121.781L151.769 121.723L144.903 69.2223Z" fill="#E0B624"/>
<path d="M163.97 74.3691L131.91 116.358L132.26 116.629L164.32 74.64L163.97 74.3691Z" fill="#E0B624"/>
<path d="M127.37 79.2019L127.102 79.5547L168.848 111.789L169.117 111.437L127.37 79.2019Z" fill="#E0B624"/>
<path d="M172.337 85.1552L123.734 105.443L123.904 105.854L172.506 85.5659L172.337 85.1552Z" fill="#E0B624"/>
<path d="M137.84 71.1234L157.976 120.042L158.381 119.881L138.257 70.9629L137.84 71.1234Z" fill="#E0B624"/>
<path d="M157.938 70.9385L137.875 119.892L138.283 120.061L158.346 71.108L157.938 70.9385Z" fill="#E0B624"/>
<path d="M123.903 85.1581L123.734 85.5688L172.336 105.831L172.505 105.42L123.903 85.1581Z" fill="#E0B624"/>
<path d="M127.113 111.446L127.383 111.792L169.116 79.5582L168.846 79.2124L127.113 111.446Z" fill="#E0B624"/>
<path d="M132.288 74.3514L131.938 74.6221L163.971 116.638L164.321 116.367L132.288 74.3514Z" fill="#E0B624"/>
<path d="M151.321 69.208L144.496 121.72L144.934 121.777L151.759 69.2656L151.321 69.208Z" fill="#E0B624"/>
<path d="M122.054 91.8234L121.996 92.2642L174.161 99.175L174.218 98.7342L122.054 91.8234Z" fill="#E0B624"/>
<path d="M59.2665 115.151H6.45312V115.596H59.2665V115.151Z" fill="#E0B624"/>
<path d="M33.0785 88.7964H32.6367V141.951H33.0785V88.7964Z" fill="#E0B624"/>
<path d="M51.4077 96.4462L14 133.968L14.3118 134.283L51.7195 96.7611L51.4077 96.4462Z" fill="#E0B624"/>
<path d="M14.3436 96.419L14.0312 96.7334L51.3756 134.319L51.6879 134.004L14.3436 96.419Z" fill="#E0B624"/>
<path d="M58.3375 108.398L7.26172 121.916L7.37406 122.345L58.4498 108.828L58.3375 108.398Z" fill="#E0B624"/>
<path d="M26.2392 89.6418L25.8125 89.7568L39.4806 141.098L39.9073 140.983L26.2392 89.6418Z" fill="#E0B624"/>
<path d="M45.8743 92.2448L19.457 138.271L19.8395 138.493L46.2568 92.4672L45.8743 92.2448Z" fill="#E0B624"/>
<path d="M10.0998 101.889L9.87891 102.274L55.6153 128.851L55.8361 128.466L10.0998 101.889Z" fill="#E0B624"/>
<path d="M55.5951 101.844L9.90625 128.506L10.1278 128.89L55.8167 102.228L55.5951 101.844Z" fill="#E0B624"/>
<path d="M19.8474 92.2396L19.4648 92.4619L45.8715 138.493L46.2541 138.271L19.8474 92.2396Z" fill="#E0B624"/>
<path d="M39.4781 89.6447L25.8047 140.986L26.2314 141.101L39.9047 89.7598L39.4781 89.6447Z" fill="#E0B624"/>
<path d="M7.28906 108.705L58.3109 122.462L58.4213 122.043L7.3995 108.285L7.28906 108.705Z" fill="#E0B624"/>
<path d="M6.65234 118.622L6.70143 119.066L59.0607 112.126L59.0117 111.681L6.65234 118.622Z" fill="#E0B624"/>
<path d="M29.6294 88.9913L29.1914 89.0493L36.0835 141.746L36.5215 141.688L29.6294 88.9913Z" fill="#E0B624"/>
<path d="M48.769 94.1592L16.5898 136.305L16.9401 136.576L49.1193 94.4301L48.769 94.1592Z" fill="#E0B624"/>
<path d="M12.0345 99.0169L11.7656 99.3696L53.6677 131.725L53.9366 131.372L12.0345 99.0169Z" fill="#E0B624"/>
<path d="M57.1665 104.986L8.38281 125.349L8.55205 125.76L57.3357 105.396L57.1665 104.986Z" fill="#E0B624"/>
<path d="M22.543 90.9083L42.7529 140.012L43.1701 139.839L22.9602 90.7354L22.543 90.9083Z" fill="#E0B624"/>
<path d="M42.7119 90.7139L22.5742 139.85L22.9826 140.019L43.1203 90.8834L42.7119 90.7139Z" fill="#E0B624"/>
<path d="M8.54406 104.995L8.375 105.405L57.1692 125.747L57.3383 125.337L8.54406 104.995Z" fill="#E0B624"/>
<path d="M11.7656 131.379L12.0356 131.725L53.9402 99.3678L53.6703 99.022L11.7656 131.379Z" fill="#E0B624"/>
<path d="M16.9638 94.1512L16.6133 94.4219L48.766 136.594L49.1165 136.324L16.9638 94.1512Z" fill="#E0B624"/>
<path d="M36.0686 88.9876L29.2188 141.695L29.6568 141.753L36.5067 89.0453L36.0686 88.9876Z" fill="#E0B624"/>
<path d="M6.70218 111.677L6.64453 112.118L59.0037 119.054L59.0613 118.614L6.70218 111.677Z" fill="#E0B624"/>
<path d="M152.27 147.804C151.975 142.383 150.993 137.159 149.361 132.219C148.196 128.6 146.686 125.13 144.87 121.857L92.1428 0L39.4154 121.857L39.3786 121.919C37.5993 125.154 36.1023 128.575 34.9488 132.157L34.9243 132.231C33.2923 137.171 32.2984 142.395 32.0161 147.817C31.9548 148.916 31.918 150.027 31.918 151.151C31.918 184.619 58.8768 211.765 92.1428 211.765C125.397 211.765 152.368 184.619 152.368 151.151C152.368 150.015 152.331 148.903 152.27 147.804Z" fill="white"/>
<path d="M92.0066 214.21C58.1271 214.21 30.5547 186.472 30.5547 152.361C30.5547 151.275 30.5915 150.163 30.6529 148.965C30.9474 143.494 31.9536 138.134 33.6224 133.058C34.8004 129.403 36.3219 125.883 38.1626 122.536C38.1626 122.536 38.1748 122.524 38.1748 122.512L90.8777 0.740997C91.0741 0.296399 91.5158 0 92.0066 0C92.4975 0 92.9392 0.296399 93.1355 0.740997L145.863 122.598C147.679 125.883 149.225 129.44 150.391 133.071C152.072 138.147 153.066 143.494 153.36 148.965C153.422 150.163 153.459 151.275 153.459 152.361C153.459 186.472 125.886 214.21 92.0066 214.21ZM92.0066 4.32248L40.4081 123.574C40.3836 123.623 40.359 123.685 40.3222 123.734C38.5552 126.945 37.095 130.317 35.9784 133.762C34.3464 138.715 33.377 143.852 33.107 149.101C33.0457 150.262 33.0088 151.324 33.0088 152.361C33.0088 185.101 59.4769 211.74 92.0066 211.74C124.536 211.74 151.004 185.101 151.004 152.361C151.004 151.324 150.98 150.25 150.906 149.101C150.624 143.852 149.667 138.715 148.059 133.836C146.931 130.341 145.458 126.933 143.667 123.685L92.0066 4.32248Z" fill="#E0B624"/>
</svg>
