<svg width="175" height="244" viewBox="0 0 175 244" fill="none" xmlns="http://www.w3.org/2000/svg">
<g clip-path="url(#clip0_507_1627)">
<path d="M44.8143 244C44.7204 244 44.6265 244 44.5443 244C33.8276 243.729 18.8266 227.364 17.7467 226.185C16.5729 225.112 0.280777 210.032 -0.000932126 199.268C-0.0596215 196.721 0.750292 194.575 2.42881 192.901L96.9774 97.9301C97.5878 97.1519 103.022 90.6437 112.53 90.0188C121.251 89.4411 130.466 93.9685 139.926 103.46C149.375 112.951 153.883 122.218 153.307 130.978C152.685 140.54 146.206 145.987 145.431 146.6L50.8828 241.571C49.2747 243.175 47.2323 244 44.8143 244ZM114.009 92.3061C113.575 92.3061 113.152 92.3179 112.718 92.3415C103.879 92.9074 98.832 99.3449 98.7733 99.4039C98.7381 99.4392 98.7146 99.4864 98.6794 99.5218L4.08385 194.551C2.86311 195.778 2.29969 197.299 2.34664 199.197C2.59314 209.112 19.1905 224.31 19.3548 224.463C19.3783 224.487 19.4135 224.522 19.437 224.546C19.5896 224.711 34.708 241.383 44.5913 241.63C46.528 241.689 47.9952 241.111 49.216 239.885L143.812 144.867C143.847 144.832 143.882 144.796 143.929 144.761C143.999 144.714 150.396 139.644 150.96 130.754C151.465 122.713 147.192 114.083 138.26 105.099C129.808 96.6096 121.65 92.3061 114.009 92.3061Z" fill="#558FCB"/>
<path d="M148.732 118.044C148.427 118.044 148.134 117.926 147.899 117.702C147.441 117.242 147.441 116.5 147.899 116.04L172.537 91.292C172.572 91.2567 172.595 91.2331 172.631 91.2095C172.631 90.6907 172.161 88.0025 163.733 79.5371C155.364 71.1306 152.665 70.6001 152.125 70.6001H152.113C152.089 70.6354 152.054 70.659 152.031 70.6944L127.393 95.4422C126.935 95.902 126.196 95.902 125.738 95.4422C125.28 94.9824 125.28 94.2396 125.738 93.7798L150.258 69.1499C150.481 68.7962 150.892 68.466 151.491 68.3245C152.383 68.1241 155.059 67.4874 165.4 77.8865C175.741 88.2737 175.119 90.9737 174.92 91.858C174.779 92.4593 174.438 92.8719 174.086 93.0959L149.566 117.726C149.343 117.926 149.038 118.044 148.732 118.044Z" fill="#558FCB"/>
<path d="M117.718 126.934C117.424 126.934 117.131 126.828 116.908 126.604C114.842 124.612 96.6836 106.914 96.6836 98.6966C96.6836 98.0481 97.2118 97.5176 97.8574 97.5176C98.503 97.5176 99.0312 98.0481 99.0312 98.6966C99.0312 104.804 113.105 119.683 118.528 124.895C118.997 125.343 119.009 126.085 118.563 126.557C118.34 126.805 118.023 126.934 117.718 126.934Z" fill="#558FCB"/>
<path d="M144.645 146.884C136.463 146.884 118.845 128.644 116.861 126.569C116.415 126.097 116.427 125.355 116.896 124.907C117.366 124.458 118.105 124.47 118.551 124.942C123.74 130.389 138.553 144.526 144.633 144.526C145.279 144.526 145.807 145.056 145.807 145.705C145.807 146.353 145.302 146.884 144.645 146.884Z" fill="#558FCB"/>
<path d="M73.3029 82.3551C73.2208 82.3551 73.1504 82.3433 73.0682 82.3315C72.4343 82.2018 72.0235 81.577 72.1526 80.9403C76.6482 59.0811 96.0392 43.2231 118.271 43.2231C123.4 43.2231 128.436 44.0485 133.237 45.6755C133.847 45.8878 134.176 46.548 133.976 47.1729C133.765 47.786 133.096 48.1279 132.485 47.9157C127.919 46.3712 123.142 45.5812 118.271 45.5812C97.1426 45.5812 78.7141 60.6492 74.4533 81.4119C74.3359 81.9778 73.8429 82.3551 73.3029 82.3551Z" fill="#558FCB"/>
<g opacity="0.8">
<path d="M79.2573 82.6385C79.1751 82.6385 79.0812 82.6267 78.9873 82.6031C78.3535 82.4617 77.9661 81.825 78.107 81.1883C82.4383 62.3003 98.9535 49.1069 118.262 49.1069C122.922 49.1069 127.5 49.8851 131.843 51.4296C132.453 51.6418 132.77 52.3139 132.559 52.9388C132.348 53.5519 131.667 53.8702 131.057 53.658C126.96 52.2078 122.652 51.4768 118.251 51.4768C100.327 51.4768 84.3985 64.1985 80.3842 81.7189C80.2785 82.273 79.7855 82.6385 79.2573 82.6385Z" fill="#558FCB"/>
</g>
<g opacity="0.4">
<path d="M85.2241 82.933C85.1302 82.933 85.0245 82.9212 84.9189 82.8976C84.2968 82.7326 83.9212 82.0841 84.0855 81.4592C88.1703 65.896 102.232 55.0254 118.266 55.0254C122.468 55.0254 126.577 55.7564 130.474 57.2066C131.084 57.4306 131.389 58.1144 131.166 58.7275C130.943 59.3406 130.262 59.6472 129.652 59.4232C126.025 58.0673 122.187 57.3834 118.266 57.3834C103.3 57.3834 90.1775 67.5349 86.3626 82.0605C86.2218 82.5793 85.7405 82.933 85.2241 82.933Z" fill="#558FCB"/>
</g>
<g opacity="0.2">
<path d="M91.2386 83.2159C91.1212 83.2159 91.0038 83.1923 90.8864 83.157C90.2643 82.9565 89.9239 82.2963 90.1235 81.6832C94.0087 69.2562 105.324 60.9087 118.271 60.9087C122.015 60.9087 125.654 61.6043 129.105 62.9838C129.704 63.2196 129.997 63.9152 129.762 64.5165C129.516 65.1178 128.835 65.4126 128.236 65.1768C125.067 63.9152 121.71 63.2667 118.271 63.2667C106.345 63.2667 95.9337 70.954 92.3537 82.3906C92.2011 82.8976 91.7316 83.2159 91.2386 83.2159Z" fill="#558FCB"/>
</g>
<g opacity="0.1">
<path d="M97.3662 83.5228C97.2254 83.5228 97.0845 83.4992 96.9437 83.4403C96.345 83.2045 96.0398 82.5207 96.2746 81.9194C99.8312 72.7347 108.459 66.8042 118.271 66.8042C121.57 66.8042 124.751 67.4762 127.732 68.7968C128.319 69.0561 128.589 69.7518 128.331 70.3531C128.073 70.9426 127.38 71.2256 126.781 70.9544C124.105 69.7636 121.241 69.1623 118.26 69.1623C109.421 69.1623 101.651 74.5033 98.4461 82.7682C98.2818 83.2399 97.8357 83.5228 97.3662 83.5228Z" fill="#558FCB"/>
</g>
<path d="M65.2529 83.2866H27.5039V83.605H65.2529V83.2866Z" fill="#558FCB"/>
<path d="M46.5435 64.4927H46.2266V102.41H46.5435V64.4927Z" fill="#558FCB"/>
<path d="M59.6361 69.9488L32.8984 96.7148L33.1222 96.9403L59.8598 70.1743L59.6361 69.9488Z" fill="#558FCB"/>
<path d="M33.1538 69.9302L32.9297 70.1553L59.622 96.9668L59.8461 96.7417L33.1538 69.9302Z" fill="#558FCB"/>
<path d="M64.5852 78.4728L28.0781 88.1152L28.1587 88.4231L64.6658 78.7807L64.5852 78.4728Z" fill="#558FCB"/>
<path d="M41.646 65.0968L41.3398 65.1792L51.1093 101.804L51.4154 101.721L41.646 65.0968Z" fill="#558FCB"/>
<path d="M55.6828 66.9553L36.8008 99.7881L37.0752 99.9473L55.9573 67.1145L55.6828 66.9553Z" fill="#558FCB"/>
<path d="M30.1194 73.8327L29.9609 74.1084L62.6516 93.0672L62.81 92.7915L30.1194 73.8327Z" fill="#558FCB"/>
<path d="M62.6293 73.7979L29.9727 92.8174L30.1316 93.0928L62.7883 74.0733L62.6293 73.7979Z" fill="#558FCB"/>
<path d="M37.087 66.9497L36.8125 67.1089L55.687 99.9455L55.9615 99.7863L37.087 66.9497Z" fill="#558FCB"/>
<path d="M51.1131 65.1015L41.3398 101.726L41.646 101.808L51.4192 65.1839L51.1131 65.1015Z" fill="#558FCB"/>
<path d="M28.1133 78.6884L64.5711 88.5097L64.6533 88.2031L28.1954 78.3818L28.1133 78.6884Z" fill="#558FCB"/>
<path d="M27.6445 85.7625L27.6915 86.0808L65.1118 81.1289L65.0766 80.8105L27.6445 85.7625Z" fill="#558FCB"/>
<path d="M44.072 64.6328L43.7578 64.6743L48.6841 102.266L48.9983 102.224L44.072 64.6328Z" fill="#558FCB"/>
<path d="M57.7505 68.3204L34.75 98.3853L35.0013 98.5792L58.0018 68.5144L57.7505 68.3204Z" fill="#558FCB"/>
<path d="M31.5054 71.7758L31.3125 72.0283L61.2626 95.1087L61.4555 94.8562L31.5054 71.7758Z" fill="#558FCB"/>
<path d="M63.7516 76.0392L28.8828 90.5654L29.0042 90.8595L63.873 76.3333L63.7516 76.0392Z" fill="#558FCB"/>
<path d="M39.0195 65.99L53.4571 101.019L53.7506 100.901L39.3012 65.8721L39.0195 65.99Z" fill="#558FCB"/>
<path d="M53.421 65.8641L39.0273 100.915L39.3203 101.036L53.714 65.9854L53.421 65.8641Z" fill="#558FCB"/>
<path d="M29.0119 76.0467L28.8906 76.3408L63.7669 90.8519L63.8882 90.5578L29.0119 76.0467Z" fill="#558FCB"/>
<path d="M31.3086 94.8647L31.5081 95.1123L61.4515 72.0269L61.2637 71.7793L31.3086 94.8647Z" fill="#558FCB"/>
<path d="M35.0288 68.3121L34.7773 68.5059L57.7589 98.5897L58.0104 98.3959L35.0288 68.3121Z" fill="#558FCB"/>
<path d="M48.6773 64.6324L43.7812 102.231L44.0955 102.273L48.9916 64.6737L48.6773 64.6324Z" fill="#558FCB"/>
<path d="M27.6898 80.8138L27.6484 81.1294L65.0728 86.0776L65.1142 85.762L27.6898 80.8138Z" fill="#558FCB"/>
<path d="M140.387 22.4956H114.141V22.7196H140.387V22.4956Z" fill="#558FCB"/>
<path d="M127.371 9.42041H127.148V35.7835H127.371V9.42041Z" fill="#558FCB"/>
<path d="M136.477 13.216L117.887 31.8257L118.044 31.9844L136.634 13.3747L136.477 13.216Z" fill="#558FCB"/>
<path d="M118.052 13.2049L117.895 13.3633L136.453 32.0046L136.611 31.8462L118.052 13.2049Z" fill="#558FCB"/>
<path d="M139.925 19.1513L114.543 25.8555L114.6 26.0721L139.982 19.368L139.925 19.1513Z" fill="#558FCB"/>
<path d="M123.965 9.84437L123.75 9.90234L130.542 35.3664L130.758 35.3085L123.965 9.84437Z" fill="#558FCB"/>
<path d="M133.738 11.1346L120.609 33.9624L120.802 34.0745L133.931 11.2467L133.738 11.1346Z" fill="#558FCB"/>
<path d="M115.959 15.9105L115.848 16.1045L138.577 29.286L138.688 29.092L115.959 15.9105Z" fill="#558FCB"/>
<path d="M138.561 15.8925L115.855 29.1162L115.967 29.31L138.673 16.0863L138.561 15.8925Z" fill="#558FCB"/>
<path d="M120.791 11.1307L120.598 11.2427L133.721 34.0731L133.914 33.9611L120.791 11.1307Z" fill="#558FCB"/>
<path d="M130.561 9.84254L123.766 35.3066L123.981 35.3646L130.776 9.90054L130.561 9.84254Z" fill="#558FCB"/>
<path d="M114.562 19.3006L139.905 26.1154L139.963 25.9032L114.609 19.0884L114.562 19.3006Z" fill="#558FCB"/>
<path d="M114.238 24.2172L114.273 24.4294L140.285 20.9866L140.261 20.7744L114.238 24.2172Z" fill="#558FCB"/>
<path d="M125.666 9.52106L125.445 9.55029L128.87 35.6867L129.091 35.6574L125.666 9.52106Z" fill="#558FCB"/>
<path d="M135.171 12.0869L119.18 32.9902L119.357 33.1267L135.348 12.2234L135.171 12.0869Z" fill="#558FCB"/>
<path d="M116.909 14.4858L116.773 14.6636L137.597 30.7108L137.733 30.533L116.909 14.4858Z" fill="#558FCB"/>
<path d="M139.345 17.4569L115.102 27.5566L115.187 27.7636L139.43 17.6639L139.345 17.4569Z" fill="#558FCB"/>
<path d="M122.133 10.4697L132.18 34.8167L132.38 34.7341L122.344 10.3872L122.133 10.4697Z" fill="#558FCB"/>
<path d="M132.164 10.3795L122.156 34.7495L122.362 34.8349L132.37 10.4649L132.164 10.3795Z" fill="#558FCB"/>
<path d="M115.183 17.4561L115.098 17.6631L139.346 27.7522L139.432 27.5453L115.183 17.4561Z" fill="#558FCB"/>
<path d="M116.777 30.5368L116.918 30.7137L137.729 14.6671L137.6 14.4902L116.777 30.5368Z" fill="#558FCB"/>
<path d="M119.361 12.0726L119.184 12.209L135.162 33.1255L135.339 32.9891L119.361 12.0726Z" fill="#558FCB"/>
<path d="M128.869 9.51022L125.465 35.6519L125.686 35.6809L129.09 9.53928L128.869 9.51022Z" fill="#558FCB"/>
<path d="M114.263 20.7672L114.234 20.9893L140.255 24.4296L140.284 24.2076L114.263 20.7672Z" fill="#558FCB"/>
<path d="M94.4662 25.5024H43.2773V25.9269H94.4662V25.5024Z" fill="#558FCB"/>
<path d="M69.0788 0H68.6562V51.4292H69.0788V0Z" fill="#558FCB"/>
<path d="M86.8591 7.40313L50.5938 43.707L50.892 44.0077L87.1574 7.70377L86.8591 7.40313Z" fill="#558FCB"/>
<path d="M50.916 7.38396L50.6172 7.68408L86.8211 44.0497L87.1199 43.7496L50.916 7.38396Z" fill="#558FCB"/>
<path d="M93.5786 18.9591L44.0625 32.0376L44.17 32.4481L93.6861 19.3696L93.5786 18.9591Z" fill="#558FCB"/>
<path d="M62.4433 0.823747L62.0352 0.933594L75.2859 50.6091L75.694 50.4992L62.4433 0.823747Z" fill="#558FCB"/>
<path d="M81.4973 3.33461L55.8867 47.8672L56.2526 48.0795L81.8632 3.54692L81.4973 3.33461Z" fill="#558FCB"/>
<path d="M46.805 12.6778L46.5938 13.0454L90.9335 38.76L91.1448 38.3925L46.805 12.6778Z" fill="#558FCB"/>
<path d="M90.9108 12.6152L46.6172 38.4121L46.8291 38.7793L91.1228 12.9824L90.9108 12.6152Z" fill="#558FCB"/>
<path d="M56.2487 3.34002L55.8828 3.55225L81.4831 48.09L81.8491 47.8777L56.2487 3.34002Z" fill="#558FCB"/>
<path d="M75.291 0.81034L62.0352 50.4858L62.4433 50.5957L75.6991 0.92023L75.291 0.81034Z" fill="#558FCB"/>
<path d="M44.0898 19.2647L93.5415 32.5759L93.6589 32.1633L44.1955 18.8521L44.0898 19.2647Z" fill="#558FCB"/>
<path d="M43.4648 28.8508L43.5235 29.2752L94.2781 22.5665L94.2194 22.1421L43.4648 28.8508Z" fill="#558FCB"/>
<path d="M65.7275 0.19461L65.3086 0.25L71.9903 51.2369L72.4092 51.1816L65.7275 0.19461Z" fill="#558FCB"/>
<path d="M84.3059 5.19002L53.1094 45.9683L53.4444 46.2269L84.641 5.44864L84.3059 5.19002Z" fill="#558FCB"/>
<path d="M48.6869 9.89127L48.4297 10.228L89.0523 41.533L89.3095 41.1962L48.6869 9.89127Z" fill="#558FCB"/>
<path d="M92.4464 15.6666L45.1523 35.3691L45.3142 35.7612L92.6082 16.0587L92.4464 15.6666Z" fill="#558FCB"/>
<path d="M58.8789 2.04006L78.4694 49.5431L78.8685 49.3899L59.278 1.875L58.8789 2.04006Z" fill="#558FCB"/>
<path d="M78.4369 1.86702L58.9141 49.4082L59.3047 49.57L78.8275 2.02886L78.4369 1.86702Z" fill="#558FCB"/>
<path d="M45.3023 15.6791L45.1406 16.0713L92.434 35.7487L92.5957 35.3566L45.3023 15.6791Z" fill="#558FCB"/>
<path d="M48.4336 41.1953L48.6918 41.5372L89.3166 10.234L89.0466 9.89209L48.4336 41.1953Z" fill="#558FCB"/>
<path d="M53.4564 5.18251L53.1211 5.44092L84.292 46.2449L84.6273 45.9865L53.4564 5.18251Z" fill="#558FCB"/>
<path d="M71.9884 0.175626L65.3477 51.1729L65.7667 51.2279L72.4074 0.230678L71.9884 0.175626Z" fill="#558FCB"/>
<path d="M43.5161 22.152L43.4609 22.5728L94.2212 29.2843L94.2764 28.8635L43.5161 22.152Z" fill="#558FCB"/>
</g>
<defs>
<clipPath id="clip0_507_1627">
<rect width="175" height="244" fill="white"/>
</clipPath>
</defs>
</svg>
