<svg width="94" height="44" viewBox="0 0 94 44" fill="none" xmlns="http://www.w3.org/2000/svg">
<path d="M21.1098 0.800293V25.9989H18.8208C18.474 25.9989 18.0462 25.7113 17.7688 25.3463L2.65896 4.39536H2.5896C2.87861 5.08118 2.9711 5.74489 2.9711 6.3201V25.9989H0V0.800293H2.28902C3.08671 0.800293 3.69942 0.977281 4.21965 1.70736L18.5896 21.5963H18.6474C18.2428 20.7667 18.1272 20.1473 18.1272 19.561V0.800293H21.1098Z" fill="#010101"/>
<path d="M31.7367 0.800293H28.7656V25.9989H31.7367V0.800293Z" fill="#010101"/>
<path d="M42.3578 0.800293H39.3867V25.9989H42.3578V0.800293Z" fill="#010101"/>
<path d="M55.5242 0.800293H58.3681L48.2178 12.4372C47.9057 12.7912 47.5473 13.0899 47.2005 13.112V13.1452C47.5473 13.2005 47.9982 13.4992 48.2756 13.831L58.9577 25.9989H56.3103C55.5357 25.9989 54.8074 25.5896 54.3681 25.0587L44.8305 14.0744C44.3912 13.5766 43.6514 13.2226 43.293 13.1231C43.5704 13.0678 44.2872 12.7359 44.7727 12.1718L53.9057 1.59674C54.3219 1.12108 54.8652 0.800293 55.5242 0.800293Z" fill="#010101"/>
<path d="M63.3523 0.800293H66.1962L56.0459 12.4372C55.7338 12.7912 55.3754 13.0899 55.0286 13.112V13.1452C55.3754 13.2005 55.8263 13.4992 56.1038 13.831L66.7858 25.9989H64.1384C63.3639 25.9989 62.6355 25.5896 62.1962 25.0587L52.6587 14.0744C52.2194 13.5766 51.4795 13.2226 51.1211 13.1231C51.3986 13.0678 52.1153 12.7359 52.6009 12.1718L61.7338 1.59674C62.15 1.12108 62.6933 0.800293 63.3523 0.800293Z" fill="#010101"/>
<path d="M94.0005 25.9989H92.1392C91.2491 25.9989 90.567 25.5786 90.2202 24.8374L88.093 20.1694H74.2433L72.1161 24.8374C71.7809 25.5786 71.0757 25.9989 70.2086 25.9989H68.3242L79.8502 0.800293H82.5092L94.0005 25.9989ZM86.7751 17.2823L81.804 6.37541C81.2722 5.20286 81.2722 4.87101 81.2491 4.50597H81.0872C81.0641 4.88207 81.0641 5.21392 80.5554 6.37541L75.5843 17.2823H86.7751Z" fill="#010101"/>
<path d="M16.1745 33.3992H7.22656V41.961H16.1745V33.3992Z" fill="#BD2327"/>
<path d="M14.254 34.5273C13.4447 34.5273 12.8089 35.1357 12.7858 35.9101C12.7742 36.441 12.3233 36.8614 11.7684 36.8614H11.6413C11.0863 36.8614 10.6355 36.441 10.6239 35.9101C10.6008 35.1357 9.9534 34.5273 9.15571 34.5273C8.34646 34.5273 7.6875 35.1579 7.6875 35.9432C7.6875 36.7176 8.34646 37.3481 9.15571 37.3481C9.4216 37.3481 9.66438 37.2817 9.89559 37.16C10.1384 37.0273 10.4158 36.9941 10.6817 37.0605C10.9476 37.1379 11.1673 37.3038 11.306 37.5361L11.3407 37.6136C11.6066 38.0782 11.4332 38.6534 10.9592 38.9189C10.4967 39.1733 10.2309 39.6268 10.2309 40.1356C10.2309 40.921 10.8898 41.5515 11.6991 41.5515C12.5083 41.5515 13.1673 40.921 13.1673 40.1356C13.1673 39.6379 12.8898 39.1733 12.4389 38.9189C12.2077 38.7861 12.0343 38.5759 11.965 38.3215C11.8956 38.0671 11.9418 37.8016 12.0806 37.5804L12.1268 37.514C12.4158 37.0494 13.0285 36.8946 13.5141 37.1711C13.7453 37.2928 13.9881 37.3591 14.254 37.3591C15.0632 37.3591 15.7222 36.7286 15.7222 35.9543C15.7337 35.1689 15.0748 34.5273 14.254 34.5273Z" fill="white"/>
<path d="M29.9897 33.3992V41.972H26.533L26.5215 36.1867L25.1573 41.972H22.718L21.2845 36.2973L21.2613 41.972H17.8047V33.3992H22.8914C23.0301 33.908 23.1804 34.5164 23.3654 35.2022L23.9319 37.3925L24.8336 33.3992H29.9897Z" fill="#5A5858"/>
<path d="M35.396 34.5164H31.5V33.3992H35.396V34.5164ZM35.396 41.972H31.5V34.9368H35.396V41.972Z" fill="#5A5858"/>
<path d="M45.1798 37.4367H41.6075V36.6403C41.6075 36.3637 41.5728 36.1646 41.4803 36.0651C41.3878 35.9655 41.2376 35.9102 41.0063 35.9102C40.7751 35.9102 40.6133 35.9545 40.5324 36.0429C40.4514 36.1314 40.4052 36.3306 40.4052 36.6403V39.9588C40.4052 40.2132 40.463 40.4013 40.5786 40.5229C40.6942 40.6446 40.8676 40.711 41.0988 40.711C41.3647 40.711 41.5497 40.6446 41.6422 40.5119C41.7347 40.3791 41.7809 40.1358 41.7809 39.7708V38.9301H45.1682C45.1566 39.4942 45.122 39.9146 45.0526 40.2022C44.9832 40.4898 44.7751 40.7774 44.4167 41.076C44.0584 41.3747 43.5959 41.5959 43.0295 41.7397C42.4514 41.8835 41.7462 41.961 40.9023 41.961C39.8272 41.961 38.9717 41.8614 38.3474 41.6512C37.7115 41.4411 37.2722 41.1535 37.0063 40.7774C36.7404 40.4013 36.6133 39.8703 36.6133 39.1845V37.1712C36.6133 36.5739 36.7173 36.1204 36.937 35.8217C37.1566 35.512 37.6075 35.2465 38.3127 35.0031C39.0179 34.7708 39.8618 34.6492 40.8676 34.6492C41.8618 34.6492 42.7173 34.7708 43.4225 35.0031C44.1277 35.2465 44.5902 35.5452 44.8329 35.8991C45.0641 36.2752 45.1798 36.7841 45.1798 37.4367Z" fill="#5A5858"/>
<path d="M50.0927 34.9368L49.9424 35.866C50.4973 35.1912 51.295 34.8372 52.347 34.793V37.2708C51.6534 37.2708 51.1332 37.3261 50.8095 37.4257C50.4858 37.5363 50.2777 37.6801 50.2083 37.8681C50.1389 38.0562 50.0927 38.4987 50.0927 39.1845V41.972H46.3008V34.9368H50.0927Z" fill="#5A5858"/>
<path d="M61.748 37.271V38.9966C61.748 39.6382 61.6902 40.1028 61.5746 40.4014C61.459 40.7001 61.2162 40.9766 60.8463 41.2311C60.4763 41.4966 60.0023 41.6735 59.4243 41.7952C58.8463 41.9169 58.1758 41.9722 57.4243 41.9722C56.5804 41.9722 55.8752 41.9169 55.2971 41.8173C54.7076 41.7178 54.2567 41.5629 53.933 41.3417C53.6093 41.1315 53.3781 40.8771 53.2393 40.5784C53.1006 40.2798 53.0312 39.8262 53.0312 39.2289V37.4148C53.0312 36.7621 53.1584 36.2422 53.4128 35.8772C53.6671 35.5011 54.1064 35.2135 54.7654 34.9923C55.4243 34.771 56.2451 34.6604 57.2625 34.6604C58.118 34.6604 58.8463 34.7378 59.459 34.8706C60.0717 35.0144 60.5457 35.2024 60.8694 35.4347C61.2047 35.667 61.4359 35.8993 61.5515 36.1427C61.6902 36.386 61.748 36.7621 61.748 37.271ZM57.9677 36.74C57.9677 36.375 57.933 36.1427 57.8636 36.0542C57.7943 35.9657 57.644 35.9104 57.4128 35.9104C57.1815 35.9104 57.0312 35.9546 56.9503 36.0542C56.8694 36.1427 56.8347 36.375 56.8347 36.74V39.9147C56.8347 40.2466 56.8694 40.4567 56.9503 40.5563C57.0312 40.6559 57.1815 40.7112 57.4012 40.7112C57.6324 40.7112 57.7827 40.6669 57.8521 40.5674C57.9214 40.4789 57.9677 40.2798 57.9677 39.9811V36.74Z" fill="#5A5858"/>
<path d="M71.6304 34.9366V40.3679C71.6304 41.098 71.5957 41.5737 71.5379 41.7838C71.4801 41.994 71.2604 42.2152 70.902 42.4586C70.5436 42.702 70.035 42.8789 69.376 43.0117C68.7286 43.1334 67.9194 43.1997 66.9251 43.1997C65.7228 43.1997 64.7517 43.0781 64.0119 42.8458C63.272 42.6135 62.902 42.1599 62.8789 41.4962H66.5552C66.5552 41.7949 66.7633 41.9498 67.1795 41.9498C67.4685 41.9498 67.665 41.9055 67.7575 41.806C67.85 41.7175 67.9078 41.5073 67.9078 41.2086V40.6777C67.5841 40.8436 67.2373 40.9763 66.8789 41.0648C66.5205 41.1533 66.139 41.1865 65.746 41.1865C65.0639 41.1865 64.4974 41.1091 64.0465 40.9542C63.6072 40.7993 63.2951 40.6002 63.1332 40.3458C62.9714 40.0914 62.8905 39.7264 62.8905 39.2618V36.7065C62.8905 36.0317 63.0986 35.5561 63.5263 35.2574C63.9541 34.9698 64.6014 34.8149 65.4801 34.8149C65.9541 34.8149 66.3934 34.8702 66.7864 34.9809C67.1795 35.0915 67.5263 35.2685 67.8384 35.4897L68.1275 34.9477H71.6304V34.9366ZM67.85 36.795C67.85 36.4742 67.8153 36.2751 67.746 36.1866C67.6766 36.0981 67.5263 36.0539 67.2951 36.0539C67.0639 36.0539 66.9136 36.1092 66.8211 36.2087C66.7286 36.3083 66.6824 36.5074 66.6824 36.8061V39.1733C66.6824 39.4941 66.7171 39.6932 66.7864 39.7927C66.8558 39.8812 67.0061 39.9365 67.2257 39.9365C67.4801 39.9365 67.6419 39.8812 67.7228 39.7706C67.8038 39.66 67.8384 39.4056 67.8384 39.0073V36.795H67.85Z" fill="#5A5858"/>
<path d="M81.5843 38.4546H76.671V39.97C76.671 40.2798 76.7172 40.4899 76.7981 40.5784C76.8791 40.6669 77.0294 40.7222 77.2606 40.7222C77.5496 40.7222 77.7346 40.6559 77.8386 40.5342C77.9311 40.4125 77.9889 40.1802 77.9889 39.8262V38.897H81.5958V39.428C81.5958 39.8594 81.5496 40.1913 81.4455 40.4236C81.3531 40.6559 81.1218 40.9103 80.7635 41.1758C80.4051 41.4412 79.9542 41.6404 79.4109 41.7731C78.8675 41.9058 78.1739 41.9722 77.3531 41.9722C76.5554 41.9722 75.8386 41.9058 75.2259 41.7842C74.6132 41.6514 74.1392 41.4744 73.7924 41.2532C73.4455 41.0209 73.2143 40.7665 73.0872 40.4899C72.96 40.2134 72.8906 39.8152 72.8906 39.2842V37.2267C72.8906 36.6073 73.0409 36.1205 73.3299 35.7666C73.619 35.4126 74.1045 35.1361 74.775 34.948C75.4455 34.76 76.2201 34.6604 77.0872 34.6604C78.1507 34.6604 79.0294 34.771 79.723 35.0033C80.4166 35.2356 80.9022 35.5343 81.1796 35.9104C81.4571 36.2865 81.5958 36.8174 81.5958 37.5143V38.4546H81.5843ZM77.8039 37.3373V36.8064C77.8039 36.4303 77.7692 36.198 77.6999 36.0763C77.6305 35.9657 77.4802 35.9104 77.2721 35.9104C77.0062 35.9104 76.8328 35.9546 76.775 36.0542C76.7057 36.1427 76.6825 36.3971 76.6825 36.8064V37.3373H77.8039Z" fill="#5A5858"/>
<path d="M86.7749 33.3992H82.8789V41.961H86.7749V33.3992Z" fill="#5A5858"/>
<path d="M29.9897 33.3992V41.972H26.533L26.5215 36.1867L25.1573 41.972H22.718L21.2845 36.2973L21.2613 41.972H17.8047V33.3992H22.8914C23.0301 33.908 23.1804 34.5164 23.3654 35.2022L23.9319 37.3925L24.8336 33.3992H29.9897Z" fill="#5A5858"/>
</svg>
