<svg width="250" height="215" viewBox="0 0 250 215" fill="none" xmlns="http://www.w3.org/2000/svg">
<g clip-path="url(#clip0_507_2102)">
<path d="M243.269 176.252H1.35435C0.609459 176.252 0 175.644 0 174.901C0 174.159 0.609459 173.551 1.35435 173.551H243.269C244.014 173.551 244.623 174.159 244.623 174.901C244.623 175.644 244.014 176.252 243.269 176.252Z" fill="#CA2026"/>
<g opacity="0.8">
<path d="M243.269 183.005H1.35435C0.609459 183.005 0 182.397 0 181.654C0 180.911 0.609459 180.304 1.35435 180.304H243.269C244.014 180.304 244.623 180.911 244.623 181.654C244.623 182.397 244.014 183.005 243.269 183.005Z" fill="#CA2026"/>
</g>
<g opacity="0.4">
<path d="M243.269 189.758H1.35435C0.609459 189.758 0 189.15 0 188.407C0 187.664 0.609459 187.057 1.35435 187.057H243.269C244.014 187.057 244.623 187.664 244.623 188.407C244.623 189.15 244.014 189.758 243.269 189.758Z" fill="#CA2026"/>
</g>
<g opacity="0.2">
<path d="M243.269 196.511H1.35435C0.609459 196.511 0 195.903 0 195.16C0 194.417 0.609459 193.81 1.35435 193.81H243.269C244.014 193.81 244.623 194.417 244.623 195.16C244.623 195.903 244.014 196.511 243.269 196.511Z" fill="#CA2026"/>
</g>
<g opacity="0.1">
<path d="M243.269 203.264H1.35435C0.609459 203.264 0 202.656 0 201.913C0 201.17 0.609459 200.562 1.35435 200.562H243.269C244.014 200.562 244.623 201.17 244.623 201.913C244.623 202.656 244.014 203.264 243.269 203.264Z" fill="#CA2026"/>
</g>
<path d="M71.3502 128.954H13.2891V129.44H71.3502V128.954Z" fill="#CA2026"/>
<path d="M42.5735 100.241H42.0859V158.154H42.5735V100.241Z" fill="#CA2026"/>
<path d="M62.7241 108.58L21.5898 149.461L21.934 149.806L63.0683 108.925L62.7241 108.58Z" fill="#CA2026"/>
<path d="M21.9619 108.551L21.6172 108.895L62.6818 149.845L63.0265 149.502L21.9619 108.551Z" fill="#CA2026"/>
<path d="M70.3398 121.599L14.1758 136.327L14.2998 136.797L70.4638 122.07L70.3398 121.599Z" fill="#CA2026"/>
<path d="M35.0413 101.164L34.5703 101.29L49.6 157.228L50.071 157.102L35.0413 101.164Z" fill="#CA2026"/>
<path d="M56.6349 104.006L27.5859 154.153L28.0081 154.396L57.0571 104.249L56.6349 104.006Z" fill="#CA2026"/>
<path d="M17.2946 114.513L17.0508 114.934L67.3434 143.89L67.5872 143.469L17.2946 114.513Z" fill="#CA2026"/>
<path d="M67.3302 114.46L17.0898 143.509L17.3344 143.929L67.5748 114.88L67.3302 114.46Z" fill="#CA2026"/>
<path d="M28.0199 103.996L27.5977 104.239L56.635 154.392L57.0572 154.149L28.0199 103.996Z" fill="#CA2026"/>
<path d="M49.6097 101.174L34.5742 157.113L35.0452 157.239L50.0807 101.3L49.6097 101.174Z" fill="#CA2026"/>
<path d="M14.2266 121.944L70.3103 136.922L70.4322 136.463L14.3485 121.472L14.2266 121.944Z" fill="#CA2026"/>
<path d="M13.5039 132.736L13.5716 133.222L71.1452 125.659L71.0774 125.186L13.5039 132.736Z" fill="#CA2026"/>
<path d="M38.7724 100.454L38.2891 100.517L45.8678 157.932L46.3512 157.869L38.7724 100.454Z" fill="#CA2026"/>
<path d="M59.8224 106.09L24.4375 152.01L24.8241 152.306L60.209 106.387L59.8224 106.09Z" fill="#CA2026"/>
<path d="M19.4374 111.372L19.1406 111.758L65.2171 147.01L65.5138 146.624L19.4374 111.372Z" fill="#CA2026"/>
<path d="M69.0498 117.882L15.4062 140.069L15.593 140.518L69.2366 118.331L69.0498 117.882Z" fill="#CA2026"/>
<path d="M30.9883 102.537L53.2132 156.047L53.6601 155.858L31.4352 102.361L30.9883 102.537Z" fill="#CA2026"/>
<path d="M53.1634 102.339L31.0195 155.874L31.4702 156.059L53.6141 102.524L53.1634 102.339Z" fill="#CA2026"/>
<path d="M15.5928 117.897L15.4062 118.347L69.0489 140.505L69.2355 140.056L15.5928 117.897Z" fill="#CA2026"/>
<path d="M19.1367 146.633L19.4347 147.011L65.5098 111.761L65.2118 111.383L19.1367 146.633Z" fill="#CA2026"/>
<path d="M24.8439 106.079L24.457 106.375L59.8129 152.324L60.1997 152.028L24.8439 106.079Z" fill="#CA2026"/>
<path d="M45.8565 100.459L38.3242 157.886L38.8077 157.949L46.34 100.523L45.8565 100.459Z" fill="#CA2026"/>
<path d="M13.5597 125.179L13.4961 125.661L71.0713 133.219L71.1349 132.737L13.5597 125.179Z" fill="#CA2026"/>
<path d="M242.795 105.981H202.422V106.319H242.795V105.981Z" fill="#CA2026"/>
<path d="M222.78 86.0327H222.441V126.294H222.78V86.0327Z" fill="#CA2026"/>
<path d="M236.776 91.8121L208.18 120.232L208.419 120.472L237.015 92.0513L236.776 91.8121Z" fill="#CA2026"/>
<path d="M208.454 91.8076L208.215 92.0464L236.763 120.515L237.002 120.276L208.454 91.8076Z" fill="#CA2026"/>
<path d="M242.08 100.875L203.035 111.113L203.121 111.44L242.166 101.201L242.08 100.875Z" fill="#CA2026"/>
<path d="M217.542 86.6778L217.215 86.7651L227.663 125.653L227.99 125.566L217.542 86.6778Z" fill="#CA2026"/>
<path d="M232.55 88.6399L212.355 123.502L212.649 123.671L232.843 88.8088L232.55 88.6399Z" fill="#CA2026"/>
<path d="M205.212 95.9542L205.043 96.2466L240.006 116.377L240.176 116.085L205.212 95.9542Z" fill="#CA2026"/>
<path d="M239.982 95.8969L205.055 116.092L205.225 116.384L240.151 96.189L239.982 95.8969Z" fill="#CA2026"/>
<path d="M212.656 88.6393L212.363 88.8081L232.55 123.674L232.843 123.505L212.656 88.6393Z" fill="#CA2026"/>
<path d="M227.675 86.6739L217.223 125.562L217.55 125.649L228.002 86.7613L227.675 86.6739Z" fill="#CA2026"/>
<path d="M203.074 101.105L242.066 111.532L242.147 111.208L203.155 100.781L203.074 101.105Z" fill="#CA2026"/>
<path d="M202.566 108.615L202.607 108.952L242.642 103.698L242.588 103.361L202.566 108.615Z" fill="#CA2026"/>
<path d="M220.125 86.1859L219.789 86.23L225.06 126.145L225.395 126.101L220.125 86.1859Z" fill="#CA2026"/>
<path d="M234.775 90.1004L210.176 122.023L210.444 122.229L235.044 90.3062L234.775 90.1004Z" fill="#CA2026"/>
<path d="M206.694 93.759L206.488 94.0269L238.52 118.534L238.727 118.266L206.694 93.759Z" fill="#CA2026"/>
<path d="M241.191 98.3016L203.898 113.726L204.028 114.037L241.321 98.6135L241.191 98.3016Z" fill="#CA2026"/>
<path d="M214.73 87.6263L230.17 124.821L230.482 124.686L215.042 87.4912L214.73 87.6263Z" fill="#CA2026"/>
<path d="M230.14 87.4927L214.746 124.71L215.059 124.839L230.453 87.6214L230.14 87.4927Z" fill="#CA2026"/>
<path d="M204.036 98.2989L203.906 98.6108L241.207 114.019L241.337 113.707L204.036 98.2989Z" fill="#CA2026"/>
<path d="M206.484 118.271L206.701 118.541L238.718 94.0416L238.515 93.7715L206.484 118.271Z" fill="#CA2026"/>
<path d="M210.472 90.0811L210.203 90.2866L234.782 122.23L235.051 122.024L210.472 90.0811Z" fill="#CA2026"/>
<path d="M225.076 86.168L219.84 126.091L220.176 126.135L225.412 86.2118L225.076 86.168Z" fill="#CA2026"/>
<path d="M202.611 103.369L202.566 103.704L242.592 108.958L242.637 108.623L202.611 103.369Z" fill="#CA2026"/>
<path d="M66.132 87.0319C42.4443 87.0319 23.1719 67.8131 23.1719 44.1913C23.1719 20.5695 42.4443 1.35059 66.132 1.35059C89.8196 1.35059 109.092 20.5695 109.092 44.1913C109.092 67.8131 89.8196 87.0319 66.132 87.0319Z" fill="white"/>
<path d="M66.1347 88.3825C41.7022 88.3825 21.8203 68.5559 21.8203 44.1913C21.8203 19.8266 41.7022 0 66.1347 0C90.5673 0 110.449 19.8266 110.449 44.1913C110.463 68.5694 90.5808 88.3825 66.1347 88.3825ZM66.1347 2.70118C43.192 2.70118 24.529 21.3123 24.529 44.1913C24.529 67.0703 43.192 85.6814 66.1347 85.6814C89.0775 85.6814 107.74 67.0703 107.74 44.1913C107.74 21.3123 89.0775 2.70118 66.1347 2.70118Z" fill="#CA2026"/>
<g opacity="0.8">
<path d="M66.1325 81.6296C45.4245 81.6296 28.5898 64.8283 28.5898 44.1913C28.5898 23.5543 45.438 6.75293 66.1325 6.75293C86.827 6.75293 103.675 23.5543 103.675 44.1913C103.675 64.8283 86.8406 81.6296 66.1325 81.6296ZM66.1325 9.45411C46.9278 9.45411 31.2985 25.0399 31.2985 44.1913C31.2985 63.3426 46.9278 78.9284 66.1325 78.9284C85.3372 78.9284 100.966 63.3426 100.966 44.1913C100.98 25.0399 85.3508 9.45411 66.1325 9.45411Z" fill="#CA2026"/>
</g>
<g opacity="0.4">
<path d="M66.1303 74.8766C49.1602 74.8766 35.3594 61.1141 35.3594 44.1912C35.3594 27.2684 49.1602 13.5059 66.1303 13.5059C83.1003 13.5059 96.9012 27.2684 96.9012 44.1912C96.9147 61.1141 83.1003 74.8766 66.1303 74.8766ZM66.1303 16.207C50.65 16.207 38.0681 28.7675 38.0681 44.1912C38.0681 59.615 50.6636 72.1754 66.1303 72.1754C81.6105 72.1754 94.1925 59.615 94.1925 44.1912C94.1925 28.7675 81.6105 16.207 66.1303 16.207Z" fill="#CA2026"/>
</g>
<g opacity="0.2">
<path d="M66.1359 68.1237C52.9038 68.1237 42.1367 57.3865 42.1367 44.1912C42.1367 30.996 52.9038 20.2588 66.1359 20.2588C79.3679 20.2588 90.135 30.996 90.135 44.1912C90.1485 57.3865 79.3814 68.1237 66.1359 68.1237ZM66.1359 22.96C54.3936 22.96 44.8454 32.4816 44.8454 44.1912C44.8454 55.9008 54.3936 65.4225 66.1359 65.4225C77.8781 65.4225 87.4263 55.9008 87.4263 44.1912C87.4263 32.4816 77.8781 22.96 66.1359 22.96Z" fill="#CA2026"/>
</g>
<g opacity="0.1">
<path d="M66.1336 61.3707C56.6261 61.3707 48.9062 53.6588 48.9062 44.1912C48.9062 34.7236 56.6396 27.0117 66.1336 27.0117C75.6276 27.0117 83.361 34.7236 83.361 44.1912C83.361 53.6588 75.6412 61.3707 66.1336 61.3707ZM66.1336 29.7129C58.1294 29.7129 51.615 36.2092 51.615 44.1912C51.615 52.1732 58.1294 58.6695 66.1336 58.6695C74.1378 58.6695 80.6523 52.1732 80.6523 44.1912C80.6523 36.2092 74.1514 29.7129 66.1336 29.7129Z" fill="#CA2026"/>
</g>
<path d="M161.138 213.056C188.814 213.056 211.249 190.683 211.249 163.084C211.249 135.485 188.814 113.112 161.138 113.112C133.463 113.112 111.027 135.485 111.027 163.084C111.027 190.683 133.463 213.056 161.138 213.056Z" fill="white"/>
<path d="M161.141 214.42C132.754 214.42 109.676 191.392 109.676 163.097C109.676 134.802 132.767 111.775 161.141 111.775C189.515 111.775 212.607 134.802 212.607 163.097C212.607 191.392 189.515 214.42 161.141 214.42ZM161.141 114.463C134.257 114.463 112.384 136.275 112.384 163.084C112.384 189.893 134.257 211.705 161.141 211.705C188.025 211.705 209.898 189.893 209.898 163.084C209.898 136.275 188.025 114.463 161.141 114.463Z" fill="#CA2026"/>
<g opacity="0.8">
<path d="M161.143 207.666C136.494 207.666 116.449 187.664 116.449 163.097C116.449 138.53 136.507 118.527 161.143 118.527C185.779 118.527 205.836 138.53 205.836 163.097C205.836 187.664 185.792 207.666 161.143 207.666ZM161.143 121.215C137.983 121.215 119.158 140.002 119.158 163.083C119.158 186.165 137.997 204.952 161.143 204.952C184.289 204.952 203.128 186.165 203.128 163.083C203.128 140.002 184.289 121.215 161.143 121.215Z" fill="#CA2026"/>
</g>
<g opacity="0.4">
<path d="M161.141 200.914C140.229 200.914 123.219 183.95 123.219 163.097C123.219 142.244 140.229 125.281 161.141 125.281C182.052 125.281 199.063 142.244 199.063 163.097C199.063 183.95 182.052 200.914 161.141 200.914ZM161.141 127.968C141.719 127.968 125.927 143.73 125.927 163.084C125.927 182.438 141.733 198.199 161.141 198.199C180.549 198.199 196.354 182.438 196.354 163.084C196.354 143.73 180.562 127.968 161.141 127.968Z" fill="#CA2026"/>
</g>
<g opacity="0.2">
<path d="M161.142 194.16C143.969 194.16 129.992 180.222 129.992 163.097C129.992 145.971 143.969 132.033 161.142 132.033C178.315 132.033 192.292 145.971 192.292 163.097C192.292 180.222 178.315 194.16 161.142 194.16ZM161.142 134.721C145.459 134.721 132.701 147.443 132.701 163.083C132.701 178.723 145.459 191.446 161.142 191.446C176.826 191.446 189.584 178.723 189.584 163.083C189.584 147.443 176.826 134.721 161.142 134.721Z" fill="#CA2026"/>
</g>
<g opacity="0.1">
<path d="M161.14 187.408C147.691 187.408 136.762 176.495 136.762 163.097C136.762 149.699 147.705 138.787 161.14 138.787C174.575 138.787 185.518 149.699 185.518 163.097C185.518 176.495 174.589 187.408 161.14 187.408ZM161.14 141.474C149.195 141.474 139.47 151.172 139.47 163.084C139.47 174.996 149.195 184.693 161.14 184.693C173.085 184.693 182.81 174.996 182.81 163.084C182.81 151.172 173.085 141.474 161.14 141.474Z" fill="#CA2026"/>
</g>
<path d="M148.967 74.4313C148.642 74.4313 148.317 74.3097 148.06 74.0801L132.336 59.9394C131.781 59.4397 131.74 58.5889 132.241 58.0351C132.742 57.4814 133.595 57.4409 134.151 57.9406L147.613 70.0554V24.4595C147.613 23.7167 148.222 23.1089 148.967 23.1089C149.712 23.1089 150.322 23.7167 150.322 24.4595V73.0807C150.322 73.6209 150.01 74.0936 149.523 74.3097C149.333 74.4042 149.143 74.4313 148.967 74.4313Z" fill="#CA2026"/>
<path d="M148.964 74.4308C148.774 74.4308 148.585 74.3903 148.408 74.3092C147.921 74.0931 147.609 73.6069 147.609 73.0802V24.459C147.609 23.7162 148.219 23.1084 148.964 23.1084C149.709 23.1084 150.318 23.7162 150.318 24.459V70.0414L163.78 57.9266C164.336 57.4269 165.189 57.4674 165.69 58.0211C166.191 58.5749 166.15 59.4257 165.595 59.9254L149.871 74.0796C149.614 74.3227 149.289 74.4308 148.964 74.4308Z" fill="#CA2026"/>
<path d="M190.932 74.4313C190.607 74.4313 190.282 74.3097 190.025 74.0801L174.301 59.9394C173.745 59.4397 173.705 58.5889 174.206 58.0351C174.707 57.4814 175.56 57.4409 176.115 57.9406L189.578 70.0554V24.4595C189.578 23.7167 190.187 23.1089 190.932 23.1089C191.677 23.1089 192.286 23.7167 192.286 24.4595V73.0807C192.286 73.6209 191.975 74.0936 191.487 74.3097C191.311 74.4042 191.122 74.4313 190.932 74.4313Z" fill="#CA2026"/>
<path d="M190.94 74.4313C190.751 74.4313 190.561 74.3907 190.385 74.3097C189.897 74.0936 189.586 73.6074 189.586 73.0807V24.4595C189.586 23.7167 190.195 23.1089 190.94 23.1089C191.685 23.1089 192.295 23.7167 192.295 24.4595V70.0418L205.757 57.9271C206.312 57.4273 207.165 57.4679 207.667 58.0216C208.168 58.5753 208.127 59.4262 207.572 59.9259L191.848 74.0801C191.59 74.3232 191.279 74.4313 190.94 74.4313Z" fill="#CA2026"/>
<path d="M232.924 74.4313C232.599 74.4313 232.274 74.3097 232.017 74.0801L216.293 59.9394C215.738 59.4397 215.697 58.5889 216.198 58.0351C216.699 57.4814 217.552 57.4409 218.108 57.9406L231.57 70.0554V24.4595C231.57 23.7167 232.179 23.1089 232.924 23.1089C233.669 23.1089 234.279 23.7167 234.279 24.4595V73.0807C234.279 73.6209 233.967 74.0936 233.48 74.3097C233.29 74.4042 233.114 74.4313 232.924 74.4313Z" fill="#CA2026"/>
<path d="M232.921 74.4313C232.731 74.4313 232.542 74.3907 232.365 74.3097C231.878 74.0936 231.566 73.6074 231.566 73.0807V24.4595C231.566 23.7167 232.176 23.1089 232.921 23.1089C233.666 23.1089 234.275 23.7167 234.275 24.4595V70.0418L247.737 57.9271C248.293 57.4273 249.146 57.4679 249.647 58.0216C250.148 58.5753 250.107 59.4262 249.552 59.9259L233.828 74.0801C233.571 74.3232 233.246 74.4313 232.921 74.4313Z" fill="#CA2026"/>
</g>
<defs>
<clipPath id="clip0_507_2102">
<rect width="250" height="214.419" fill="white"/>
</clipPath>
</defs>
</svg>
